<?xml version="1.0"?>
<svg xmlns="http://www.w3.org/2000/svg" id="Layer_5" enable-background="new 0 0 64 64" height="512px" viewBox="0 0 64 64" width="512px"><g><g><path d="m51 30c0 1.71-2.149 3-5 3-.257 0-.501-.022-.746-.042-.153.998-.254 2.005-.254 3.012v4.06c0 1.488.177 2.971.506 4.421l8.019 1.234c.964-1.791 1.475-3.798 1.475-5.849v-3.673c0-3.808-1.782-7.444-4.767-9.726-.259-.198-.559-.324-.87-.387l-.147 1.618c1.131.55 1.784 1.388 1.784 2.332z" data-original="#000000" class="active-path" data-old_color="#000000" fill="#FFFFFF"/><path d="m11.051 53c-.03-.33-.051-.662-.051-1s.021-.67.051-1h-4.249-2.802c-.551 0-1 .449-1 1s.449 1 1 1h2.802z" data-original="#000000" class="active-path" data-old_color="#000000" fill="#FFFFFF"/><path d="m24.32 11.433-.282.662-.717-.058c-.071-.005-.142-.015-.212-.024-.036-.005-.072-.013-.109-.013-1.959 0-3.651 1.47-3.937 3.42l-.093.639-.621.178c-2.561.732-4.349 3.102-4.349 5.763 0 2.267 1.26 4.315 3.289 5.347l1.002.509-.623.936c-.437.658-.668 1.421-.668 2.208 0 1.372.701 2.633 1.875 3.375l.693.438-.292.765c-.183.478-.276.956-.276 1.422 0 2.222 1.794 4.029 4 4.029.303.021.606.052.907.099l5.687.875c-.386-1.279-.594-2.6-.594-3.952v-2.103c0-.614.052-1.222.134-1.824-2.635-2.094-7.087-2.124-7.134-2.124v-2c.188 0 3.815.025 6.855 1.584-.61-2.023-1.302-3.913-2.002-5.636-1.99-2.031-6.25-2.104-7.754-1.953l-.199-1.99c.195-.021 3.594-.331 6.585.795-1.774-3.818-3.3-6.217-3.327-6.259l1.683-1.082c.126.197 2.09 3.288 4.171 8.065 1.519-3.985 4.225-6.194 4.363-6.305l.625.781.626.779c-.035.029-3.466 2.856-4.391 7.743.41 1.073.808 2.203 1.187 3.383.971-1.979 2.405-3.736 4.225-5.079.721-.533 1.615-.826 2.516-.826.284 0 .56.037.831.091 0-.031.006-.061.006-.091 0-1.051-.408-2.045-1.149-2.799l-.687-.701.688-.701c.74-.754 1.148-1.748 1.148-2.799 0-2.206-1.794-4-4-4-.276 0-.561.034-.871.103l-1.02.227-.182-1.029c-.338-1.913-1.989-3.301-3.927-3.301-1.605 0-3.049.955-3.68 2.433z" data-original="#000000" class="active-path" data-old_color="#000000" fill="#FFFFFF"/><path d="m8.289 21.347 1.002.509-.623.936c-.437.658-.668 1.421-.668 2.208 0 1.372.701 2.633 1.875 3.375l.693.438-.293.765c-.182.477-.275.955-.275 1.422 0 2.206 1.794 4 4 4h.705l2.535 7.099c.549-.265 1.119-.488 1.713-.66-1.197-1.103-1.953-2.682-1.953-4.439 0-.463.058-.929.173-1.393-1.373-1.134-2.173-2.807-2.173-4.607 0-.829.17-1.641.499-2.392-2.181-1.48-3.499-3.929-3.499-6.608 0-3.341 2.113-6.338 5.209-7.493.656-2.546 2.944-4.415 5.593-4.504.777-1.35 2.043-2.326 3.513-2.756-.418-.146-.855-.247-1.315-.247-.276 0-.561.034-.871.103l-1.02.227-.182-1.029c-.338-1.913-1.989-3.301-3.927-3.301-1.605 0-3.049.955-3.68 2.433l-.283.665-.72-.06c-.069-.006-.138-.015-.206-.024-.036-.006-.073-.014-.111-.014-1.959 0-3.652 1.47-3.938 3.42l-.093.639-.621.178c-2.56.732-4.348 3.102-4.348 5.763 0 2.267 1.26 4.315 3.289 5.347z" data-original="#000000" class="active-path" data-old_color="#000000" fill="#FFFFFF"/><path d="m46 31c1.936 0 3-.751 3-1 0-.079-.276-.448-1.152-.729l-.763-.245.908-9.987c.005-.056.007-.113.007-.169 0-1.031-.839-1.87-1.87-1.87h-.26c-1.031 0-1.87.839-1.87 1.87 0 .057.002.114.008.17l.908 9.986-.763.245c-.877.281-1.153.65-1.153.729 0 .249 1.064 1 3 1z" data-original="#000000" class="active-path" data-old_color="#000000" fill="#FFFFFF"/><path d="m35.835 26.435c-3.027 2.235-4.835 5.792-4.835 9.514v2.103c0 1.482.29 2.922.833 4.296l3.513.54c-.222-1-.346-2.02-.346-3.051v-3.673c0-3.535 1.372-6.93 3.73-9.513-.407-.408-.963-.651-1.567-.651-.476 0-.948.154-1.328.435z" data-original="#000000" class="active-path" data-old_color="#000000" fill="#FFFFFF"/><path d="m37 39.836c0 1.15.172 2.283.493 3.382l5.895.907c-.256-1.349-.388-2.721-.388-4.095v-4.06c0-1.146.117-2.292.296-3.427-1.397-.52-2.296-1.441-2.296-2.543 0-.944.653-1.782 1.784-2.332l-.144-1.585c-.269.074-.527.195-.75.362-3.062 2.282-4.89 5.915-4.89 9.719z" data-original="#000000" class="active-path" data-old_color="#000000" fill="#FFFFFF"/><path d="m6.802 55c-.442 0-.802.36-.802.802v.396c0 .501.501.885.975.784l4.761-1.058c-.116-.302-.22-.609-.309-.923h-4.625z" data-original="#000000" class="active-path" data-old_color="#000000" fill="#FFFFFF"/><path d="m6 47.802v.396c0 .442.36.802.802.802h4.624c.089-.314.194-.621.309-.923l-4.759-1.058c-.49-.106-.976.281-.976.783z" data-original="#000000" class="active-path" data-old_color="#000000" fill="#FFFFFF"/><path d="m57.894 48.38-34.29-5.275c-.453-.07-.914-.105-1.369-.105h-.235c-4.962 0-9 4.038-9 9s4.038 9 9 9h.235c.455 0 .916-.035 1.369-.104l34.29-5.275c1.8-.278 3.106-1.8 3.106-3.621s-1.306-3.343-3.106-3.62zm-34.894 8.62h-2v-10h2zm8 0h-2v-10h2zm8 0h-2v-10h2zm8-2h-2v-6h2zm8-1h-2v-4h2z" data-original="#000000" class="active-path" data-old_color="#000000" fill="#FFFFFF"/><path d="m56.165 26.436c-.38-.282-.852-.436-1.328-.436-.577 0-1.113.229-1.517.61 2.325 2.589 3.68 6 3.68 9.553v3.673c0 2.145-.485 4.249-1.399 6.167l1.987.306c2.167-2.206 3.412-5.182 3.412-8.258v-2.103c0-3.721-1.808-7.278-4.835-9.512z" data-original="#000000" class="active-path" data-old_color="#000000" fill="#FFFFFF"/></g></g> </svg>
